/* XPM */
static char *_1baa1f4119d4917e0a65c705ac8d683bfTQhAppjlonRWEw[] = {
/* columns rows colors chars-per-pixel */
"544 32 8 1 ",
"  c None",
". c #211F30",
"X c #9C1B4D",
"o c #CC3048",
"O c #28860F",
"+ c #72A11D",
"@ c #F18B72",
"# c #A4CC42",
/* pixels */
"                                                                                                                                                                                                                                                                                                                                                                                                                                                                                                                                                                ",
"                                                                                                                                                                                                                                                                                                                                                                                                                                                                                                                                                                ",
"                                                                                                                                                                                                                                                                                                                                                                                                                                                                                                                                                                ",
"                                                                                                                                                                                                                                                                                                                                                                                                                                                                                                                                                                ",
"                                                                                                                                                                                                                                                                                                                                                                                                                                                                                                                                                                ",
"                                                                                                                                                                                                                                                                                                                                                                                                                                                                                                                                                                ",
"                                                                                                                                                                                                                                                                                                                                                                                                                                                                                                                                                                ",
"                                                                                                                                                                                                             ....                            ....                            ....                                                                                                                                                                                                                                                                               ",
"                                                                                                                                                                             ....                            .##+.                           .##+.                           .##+.                           ....                            ....                                                                                                                                                                                                               ",
"             ....                            ....                            ....                            ....                            ....                            .##+.                           .+.#.                           .+.#.                           .+.#.                           .##+.                           .##+.                           ....                                                                                                                            ....                            ....               ",
"             .##+.                           .##+.                           .##+.                           .##+.                           .##+.                           .+.#.                           .O.O#.                          .O.O#.                          .O.O#.                          .+.#.                           .+.#.                           .##+.                           ....                            ....                            ....                            .##+.                           .##+.              ",
"             .+.#.                           .+.#.                           .+.#.                           .+.#.                           .+.#.                           .O.O#.                         .+O..O.                         .+O..O.                         .+O..O.                          .O.O#.                          .O.O#.                          .+.#.                           .##+.                           .##+.                           .##+.                           .+.#.                           .+.#.              ",
"             .O.O#.                          .O.O#.                          .O.O#.                          .O.O#.                          .O.O#.                         .+O..O+.                        .O.  .X.                        .O.  .X.                        .O.  .X.                        .+O..O+.                        .+O..O+.                         .O.O#.                          .+.O#..                         .+.O#..                         .+.O#..                         .O.O#.                          .O.O#.             ",
"            .+O..O+.                        .+O..O+.                        .+O..O+.                        .+O..O+.                        .+O..O+.                        .O.  .XX.                       .X. .ooo.                       .X. .ooo.                       .X. .ooo.                       .O.  .XX.                       .O.  .XX.                       .+O..O+.                        .+O..O++.                       .+O..O++.                       .+O..O++.                       .+O..O+.                        .+O..O+.            ",
"            .O.  .XX.                       .O.  .XX.                       .O.  .XX.                       .O.  .XX.                       .O.  .XX.                      .XX. .oooo.                     .ooX.Xo@@o.                     .ooX.Xo@@o.                     .ooX.Xo@@o.                     .XX. .oooo.                     .XX. .oooo.                      .O.  .XX..                     .OO.  .XXX..                    .OO.  .XXX..                    .OO.  .XXX..                     .O.  .XX..                      .O.  .XX..          ",
"           .XX. .oooo.                     .XX. .oooo.                     .XX. .oooo.                     .XX. .oooo.                     .XX. .oooo.                    .oooX.Xoo@@o.                   .@@oX.Xo@@o.                    .@@oX.Xo@@o.                    .@@oX.Xo@@o.                    .oooX.Xoo@@o.                   .oooX.Xoo@@o.                   ..XX. .ooooo.                  ..XXX. .oooooo.                 ..XXX. .oooooo.                 ..XXX. .oooooo.                  ..XX. .ooooo.                   ..XX. .ooooo.         ",
"          .oooX.Xoo@@o.                   .oooX.Xoo@@o.                   .oooX.Xoo@@o.                   .oooX.Xoo@@o.                   .oooX.Xoo@@o.                  .o@@oX.Xoo@@o.                   .@@oX.Xo@@o.                    .@@oX.Xo@@o.                    .@@oX.Xo@@o.                   .o@@oX.Xoo@@o.                  .o@@oX.Xoo@@o.                  .ooooX.Xoo@@@o.                .oooooX.Xooo@@@o.               .oooooX.Xooo@@@o.               .oooooX.Xooo@@@o.                .ooooX.Xoo@@@o.                 .ooooX.Xoo@@@o.        ",
"         .o@@oX.Xoo@@o.                  .o@@oX.Xoo@@o.                  .o@@oX.Xoo@@o.                  .o@@oX.Xoo@@o.                  .o@@oX.Xoo@@o.                  .o@@oX.Xoo@@o.                   .@@oX.Xo@@o.                    .@@oX.Xo@@o.                    .@@oX.Xo@@o.                   .o@@oX.Xoo@@o.                  .o@@oX.Xoo@@o.                 .o@@@oX.Xoo@@@o.               .o@@@ooX.Xooo@@@o.              .o@@@ooX.Xooo@@@o.              .o@@@ooX.Xooo@@@o.               .o@@@oX.Xoo@@@o.                .o@@@oX.Xoo@@@o.        ",
"         .o@@oX.Xooooo.                  .o@@oX.Xooooo.                  .o@@oX.Xooooo.                  .o@@oX.Xooooo.                  .o@@oX.Xooooo.                  .o@@oX.Xooooo.                   .@@oX.Xoooo.                    .@@oX.Xoooo.                    .@@oX.Xoooo.                   .o@@oX.Xooooo.                  .o@@oX.Xooooo.                 .o@@@oX.Xoooooo.               .o@@@ooX.XXoooooX.              .o@@@ooX.XXoooooX.              .o@@@ooX.XXoooooX.               .o@@@oX.Xoooooo.                .o@@@oX.Xoooooo.        ",
"         .ooooX.XXoooX.                  .ooooX.XXoooX.                  .ooooX.XXoooX.                  .ooooX.XXoooX.                  .ooooX.XXoooX.                  .ooooX.Xooooo.                   .oooX.Xoooo.                    .oooX.Xoooo.                    .oooX.Xoooo.                   .ooooX.Xooooo.                  .ooooX.Xooooo.                 .oooooX.XXooooX.               .XooooXXX.XXXXXX.               .XooooXXX.XXXXXX.               .XooooXXX.XXXXXX.                .oooooX.XXooooX.                .oooooX.XXooooX.        ",
"         .XooXXX.XXXX.                   .XooXXX.XXXX.                   .XooXXX.XXXX.                   .XooXXX.XXXX.                   .XooXXX.XXXX.                   .ooooX.XXoooX.                   .oooX.Xoooo.                    .oooX.Xoooo.                    .oooX.Xoooo.                   .ooooX.XXoooX.                  .ooooX.XXoooX.                 .XoooXXX.XXXXX.                 .XXXXXX. ......                 .XXXXXX. ......                 .XXXXXX. ......                 .XoooXXX.XXXXX.                 .XoooXXX.XXXXX.         ",
"          .XXXX. ....                     .XXXX. ....                     .XXXX. ....                     .XXXX. ....                     .XXXX. ....                    .XooXXX.XXXX.                    .oooX.XXooX.                    .oooX.XXooX.                    .oooX.XXooX.                   .XooXXX.XXXX.                   .XooXXX.XXXX.                   .XXXXX. .....                   ......                          ......                          ......                          .XXXXX. .....                   .XXXXX. .....          ",
"           ....                            ....                            ....                            ....                            ....                           .XXXX. ....                     .XoXXX.XXX.                     .XoXXX.XXX.                     .XoXXX.XXX.                     .XXXX. ....                     .XXXX. ....                     .....                                                                                                                           .....                           .....                 ",
"                                                                                                                                                                           ....                            .XXX. ...                       .XXX. ...                       .XXX. ...                       ....                            ....                                                                                                                                                                                                                 ",
"                                                                                                                                                                                                            ...                             ...                             ...                                                                                                                                                                                                                                                                                 ",
"                                                                                                                                                                                                                                                                                                                                                                                                                                                                                                                                                                ",
"                                                                                                                                                                                                                                                                                                                                                                                                                                                                                                                                                                ",
"                                                                                                                                                                                                                                                                                                                                                                                                                                                                                                                                                                ",
"                                                                                                                                                                                                                                                                                                                                                                                                                                                                                                                                                                ",
"                                                                                                                                                                                                                                                                                                                                                                                                                                                                                                                                                                ",
"                                                                                                                                                                                                                                                                                                                                                                                                                                                                                                                                                                ",
"                                                                                                                                                                                                                                                                                                                                                                                                                                                                                                                                                                "
};
